<svg xmlns="http://www.w3.org/2000/svg" width="560" height="340" viewBox="0 0 560 340" font-family="-apple-system,Segoe UI,Roboto,sans-serif" font-size="13" role="img" aria-label="Regeneration switches ON when VBus rises through RegenOn and OFF when VBus falls back through RegenOff; the gap RegenOn minus RegenOff is the dead-band that prevents chatter.">
  <title>Regeneration hysteresis vs bus voltage</title>
  <text x="280" y="24" text-anchor="middle" font-size="15" font-weight="bold">Regeneration hysteresis vs bus voltage</text>

  <line x1="80" y1="270" x2="520" y2="270" stroke="#5b6b7b" stroke-width="1.2"/>
  <line x1="80" y1="270" x2="80" y2="60" stroke="#5b6b7b" stroke-width="1.2"/>
  <text x="300" y="324" text-anchor="middle">VBus (mV)</text>
  <text x="30" y="160" text-anchor="middle" transform="rotate(-90 30 160)">Regen resistor</text>

  <text x="84" y="100" fill="#5b6b7b">ON</text>
  <text x="80" y="260" fill="#5b6b7b">OFF</text>
  <line x1="80" y1="95" x2="520" y2="95" stroke="#d6dde6" stroke-dasharray="3,3"/>
  <line x1="80" y1="240" x2="520" y2="240" stroke="#d6dde6" stroke-dasharray="3,3"/>

  <line x1="250" y1="60" x2="250" y2="278" stroke="#5b8def" stroke-dasharray="4,4"/>
  <text x="250" y="296" text-anchor="middle" fill="#5b8def">RegenOff</text>
  <line x1="400" y1="60" x2="400" y2="278" stroke="#e0736b" stroke-dasharray="4,4"/>
  <text x="400" y="296" text-anchor="middle" fill="#e0736b">RegenOn</text>

  <!-- rising branch (red): low and OFF until RegenOn, then jumps ON -->
  <polyline points="120,240 400,240 400,95 510,95" fill="none" stroke="#e0736b" stroke-width="2.4"/>
  <!-- falling branch (blue): high and ON until RegenOff, then drops OFF -->
  <polyline points="510,95 250,95 250,240 120,240" fill="none" stroke="#5b8def" stroke-width="2.4"/>

  <text x="300" y="232" text-anchor="middle" font-size="11" fill="#e0736b">rising VBus &#8594; turns ON at RegenOn</text>
  <text x="170" y="88" text-anchor="middle" font-size="11" fill="#5b8def">falling VBus &#8594; turns OFF at RegenOff</text>
  <text x="300" y="56" text-anchor="middle" font-size="11" fill="#5b6b7b">RegenOn &gt; RegenOff gives the dead-band that prevents chatter</text>
</svg>
