<svg xmlns="http://www.w3.org/2000/svg" width="965" height="266" viewBox="-145 -6 965 266" role="img" aria-label="Analog input signal path: raw analog goes through a hardware low-pass filter and the ADC, then through firmware filter (AInFilt), offset (AInOffset), deadband (AInDB), gain (AInGain), second deadband (AInMuteRange), and finally to AInPort." font-family="-apple-system,Segoe UI,Roboto,sans-serif" font-size="13">
  <title>Analog-input signal path</title>
  <defs>
    <marker id="arrow" markerWidth="8" markerHeight="8" refX="6" refY="3" orient="auto"><path d="M0,0 L6,3 L0,6 Z" fill="#5b6b7b"/></marker>
  </defs>

  <text x="410" y="22" text-anchor="middle" font-size="14" font-weight="bold">Analog-input signal path</text>
  <text x="410" y="40" text-anchor="middle" font-size="11" fill="#5b6b7b">hardware stages (top row) feed firmware conditioning (bottom row)</text>

  <!-- Top row: hardware stages -->
  <rect x="20"  y="60" width="160" height="56" rx="6" fill="#eaf2fb" stroke="#5b8def" stroke-width="1.2"/>
  <text x="100" y="84" text-anchor="middle">Raw analog</text>
  <text x="100" y="102" text-anchor="middle" font-size="11" fill="#5b6b7b">input pin</text>

  <rect x="220" y="60" width="160" height="56" rx="6" fill="#eaf2fb" stroke="#5b8def" stroke-width="1.2"/>
  <text x="300" y="84" text-anchor="middle">Low-pass filter</text>
  <text x="300" y="102" text-anchor="middle" font-size="11" fill="#5b6b7b">hardware</text>

  <rect x="420" y="60" width="160" height="56" rx="6" fill="#eaf2fb" stroke="#5b8def" stroke-width="1.2"/>
  <text x="500" y="84" text-anchor="middle">ADC</text>
  <text x="500" y="102" text-anchor="middle" font-size="11" fill="#5b6b7b">analog &#8594; digital</text>

  <rect x="620" y="60" width="180" height="56" rx="6" fill="#eaf2fb" stroke="#5b8def" stroke-width="1.2"/>
  <text x="710" y="84" text-anchor="middle">Low-pass filter</text>
  <text x="710" y="102" text-anchor="middle" font-size="11" fill="#5b6b7b">AInFilt (firmware)</text>

  <line x1="180" y1="88" x2="218" y2="88" stroke="#5b6b7b" stroke-width="1.4" marker-end="url(#arrow)"/>
  <line x1="380" y1="88" x2="418" y2="88" stroke="#5b6b7b" stroke-width="1.4" marker-end="url(#arrow)"/>
  <line x1="580" y1="88" x2="618" y2="88" stroke="#5b6b7b" stroke-width="1.4" marker-end="url(#arrow)"/>

  <!-- Down-link from AInFilt to AInOffset -->
  <line x1="710" y1="116" x2="710" y2="158" stroke="#5b6b7b" stroke-width="1.4" marker-end="url(#arrow)"/>

  <!-- Bottom row: firmware stages, right to left -->
  <rect x="620" y="160" width="180" height="56" rx="6" fill="#eaf2fb" stroke="#5b8def" stroke-width="1.2"/>
  <text x="710" y="184" text-anchor="middle">Offset</text>
  <text x="710" y="202" text-anchor="middle" font-size="11" fill="#5b6b7b">AInOffset</text>

  <rect x="420" y="160" width="160" height="56" rx="6" fill="#eaf2fb" stroke="#5b8def" stroke-width="1.2"/>
  <text x="500" y="184" text-anchor="middle">Deadband</text>
  <text x="500" y="202" text-anchor="middle" font-size="11" fill="#5b6b7b">AInDB</text>

  <rect x="220" y="160" width="160" height="56" rx="6" fill="#eaf2fb" stroke="#5b8def" stroke-width="1.2"/>
  <text x="300" y="184" text-anchor="middle">Gain scaling</text>
  <text x="300" y="202" text-anchor="middle" font-size="11" fill="#5b6b7b">AInGain</text>

  <rect x="20"  y="160" width="160" height="56" rx="6" fill="#eaf2fb" stroke="#5b8def" stroke-width="1.2"/>
  <text x="100" y="184" text-anchor="middle">2nd deadband</text>
  <text x="100" y="202" text-anchor="middle" font-size="11" fill="#5b6b7b">AInMuteRange</text>

  <line x1="620" y1="188" x2="582" y2="188" stroke="#5b6b7b" stroke-width="1.4" marker-end="url(#arrow)"/>
  <line x1="420" y1="188" x2="382" y2="188" stroke="#5b6b7b" stroke-width="1.4" marker-end="url(#arrow)"/>
  <line x1="220" y1="188" x2="182" y2="188" stroke="#5b6b7b" stroke-width="1.4" marker-end="url(#arrow)"/>

  <text x="100" y="240" text-anchor="middle" font-size="11" fill="#5b6b7b">AInPort (final conditioned value read by host or assigned via AInMode)</text>
</svg>
