<svg xmlns="http://www.w3.org/2000/svg" width="720" height="380" viewBox="0 0 720 380" font-family="-apple-system,Segoe UI,Roboto,sans-serif" font-size="13" role="img" aria-label="Gantry common and differential coordinates: motor A and motor B feedbacks are transformed into a mean (common, master axis) and a difference (yaw axis); the common loop tracks the move command and the differential loop holds GantryYawRef; outputs are recombined into A current equal to linear plus yaw and B current equal to linear minus yaw.">
  <title>Gantry common and differential coordinates</title>
  <defs>
    <marker id="arrow" markerWidth="8" markerHeight="8" refX="6" refY="3" orient="auto">
      <path d="M0,0 L6,3 L0,6 Z" fill="#5b6b7b"/>
    </marker>
  </defs>

  <!-- Motor feedbacks in -->
  <rect x="20" y="60" width="130" height="40" rx="6" fill="#eaf2fb" stroke="#5b8def" stroke-width="1.2"/>
  <text x="85" y="85" text-anchor="middle">Motor A end</text>
  <rect x="20" y="280" width="130" height="40" rx="6" fill="#eaf2fb" stroke="#5b8def" stroke-width="1.2"/>
  <text x="85" y="305" text-anchor="middle">Motor B end</text>

  <!-- Transform -->
  <rect x="210" y="155" width="160" height="70" rx="6" fill="#eaf2fb" stroke="#5b8def" stroke-width="1.2"/>
  <text x="290" y="183" text-anchor="middle">Transform</text>
  <text x="290" y="201" text-anchor="middle">mean &amp; difference</text>
  <text x="290" y="217" text-anchor="middle" fill="#5b6b7b" font-size="11">into two virtual axes</text>

  <line x1="150" y1="80" x2="210" y2="170" stroke="#5b6b7b" stroke-width="1.2" marker-end="url(#arrow)"/>
  <line x1="150" y1="300" x2="210" y2="210" stroke="#5b6b7b" stroke-width="1.2" marker-end="url(#arrow)"/>

  <!-- Common loop -->
  <rect x="420" y="40" width="200" height="62" rx="6" fill="#eaf2fb" stroke="#5b8def" stroke-width="1.2"/>
  <text x="520" y="64" text-anchor="middle">Common (linear) loop</text>
  <text x="520" y="82" text-anchor="middle" fill="#5b6b7b" font-size="11">mean &#8212; follows the move</text>
  <text x="520" y="96" text-anchor="middle" fill="#5b6b7b" font-size="11">command on the master axis</text>

  <!-- Differential loop -->
  <rect x="420" y="278" width="200" height="62" rx="6" fill="#fdecea" stroke="#e0736b" stroke-width="1.2"/>
  <text x="520" y="302" text-anchor="middle">Differential (yaw) loop</text>
  <text x="520" y="320" text-anchor="middle" fill="#5b6b7b" font-size="11">difference &#8212; holds the beam</text>
  <text x="520" y="334" text-anchor="middle" fill="#5b6b7b" font-size="11">square at GantryYawRef</text>

  <line x1="370" y1="172" x2="420" y2="80" stroke="#5b6b7b" stroke-width="1.2" marker-end="url(#arrow)"/>
  <line x1="370" y1="208" x2="420" y2="300" stroke="#5b6b7b" stroke-width="1.2" marker-end="url(#arrow)"/>

  <!-- Recombine -->
  <rect x="420" y="155" width="200" height="70" rx="6" fill="#eaf2fb" stroke="#5b8def" stroke-width="1.2"/>
  <text x="520" y="180" text-anchor="middle">Recombine</text>
  <text x="520" y="198" text-anchor="middle" fill="#5b6b7b" font-size="11">A current = linear + yaw</text>
  <text x="520" y="214" text-anchor="middle" fill="#5b6b7b" font-size="11">B current = linear &#8722; yaw</text>

  <line x1="520" y1="102" x2="520" y2="155" stroke="#5b6b7b" stroke-width="1.2" marker-end="url(#arrow)"/>
  <line x1="520" y1="278" x2="520" y2="225" stroke="#5b6b7b" stroke-width="1.2" marker-end="url(#arrow)"/>

  <!-- Outputs to A and B motors -->
  <rect x="660" y="158" width="48" height="28" rx="6" fill="#eaf2fb" stroke="#5b8def" stroke-width="1.2"/>
  <text x="684" y="176" text-anchor="middle" font-size="11">to A</text>
  <rect x="660" y="196" width="48" height="28" rx="6" fill="#eaf2fb" stroke="#5b8def" stroke-width="1.2"/>
  <text x="684" y="214" text-anchor="middle" font-size="11">to B</text>
  <line x1="620" y1="172" x2="658" y2="172" stroke="#5b6b7b" stroke-width="1.2" marker-end="url(#arrow)"/>
  <line x1="620" y1="210" x2="658" y2="210" stroke="#5b6b7b" stroke-width="1.2" marker-end="url(#arrow)"/>
</svg>
