<svg xmlns="http://www.w3.org/2000/svg" width="700" height="270" viewBox="0 0 700 270" font-family="-apple-system,Segoe UI,Roboto,sans-serif" font-size="13" role="img" aria-label="Motion commands and their effect: Begin and Stop write through the trajectory profiler which drives PosRef and sets MotionStat; Abort bypasses the profiler and zeroes MotionStat immediately.">
  <title>Motion commands and their effect on the profiler</title>
  <defs>
    <marker id="arrow" markerWidth="8" markerHeight="8" refX="6" refY="3" orient="auto"><path d="M0,0 L6,3 L0,6 Z" fill="#5b6b7b"/></marker>
  </defs>

  <text x="20" y="22" font-size="14" font-weight="bold">Motion commands and their effect on the profiler</text>

  <!-- Profiler -->
  <rect x="260" y="110" width="200" height="56" rx="6" fill="#eaf2fb" stroke="#5b8def" stroke-width="1.2"/>
  <text x="360" y="133" text-anchor="middle">Trajectory profiler</text>
  <text x="360" y="151" text-anchor="middle" font-size="11" fill="#5b6b7b">drives PosRef, sets MotionStat</text>

  <!-- Begin -->
  <rect x="40" y="40" width="160" height="50" rx="6" fill="#eaf2fb" stroke="#5b8def" stroke-width="1.2"/>
  <text x="120" y="60" text-anchor="middle">Begin</text>
  <text x="120" y="77" text-anchor="middle" font-size="11" fill="#5b6b7b">starts move, bit 0 = 1</text>

  <!-- Stop -->
  <rect x="40" y="120" width="160" height="50" rx="6" fill="#eaf2fb" stroke="#5b8def" stroke-width="1.2"/>
  <text x="120" y="140" text-anchor="middle">Stop</text>
  <text x="120" y="157" text-anchor="middle" font-size="11" fill="#5b6b7b">bit 3 = 1, ramp on Decel</text>

  <!-- Abort -->
  <rect x="40" y="200" width="160" height="50" rx="6" fill="#fdecea" stroke="#e0736b" stroke-width="1.2"/>
  <text x="120" y="220" text-anchor="middle">Abort</text>
  <text x="120" y="237" text-anchor="middle" font-size="11" fill="#5b6b7b">MotionStat = 0 at once</text>

  <!-- MotionStat -->
  <rect x="500" y="110" width="170" height="56" rx="6" fill="#eaf2fb" stroke="#5b8def" stroke-width="1.2"/>
  <text x="585" y="133" text-anchor="middle">MotionStat</text>
  <text x="585" y="151" text-anchor="middle" font-size="11" fill="#5b6b7b">bit 0 in-motion, 3 stop</text>

  <!-- arrows -->
  <line x1="200" y1="65" x2="258" y2="120" stroke="#5b6b7b" stroke-width="1.4" marker-end="url(#arrow)"/>
  <line x1="200" y1="140" x2="258" y2="140" stroke="#5b6b7b" stroke-width="1.4" marker-end="url(#arrow)"/>
  <line x1="200" y1="220" x2="258" y2="160" stroke="#e0736b" stroke-width="1.4" marker-end="url(#arrow)"/>
  <line x1="460" y1="138" x2="498" y2="138" stroke="#5b6b7b" stroke-width="1.4" marker-end="url(#arrow)"/>
</svg>
