<svg xmlns="http://www.w3.org/2000/svg" width="720" height="280" viewBox="0 0 720 280" role="img" aria-label="OpenLoopOn cut points in the control cascade. Setting OpenLoopOn = 1 cuts the cascade at the current-reference summing point and lets OpenLoopCurr drive the reference. Setting OpenLoopOn = 2 cuts at the phase-voltage stage and lets OpenLoopVolt inject a sinusoid. OpenLoopOn = 0 keeps all loops closed." font-family="-apple-system,Segoe UI,Roboto,sans-serif" font-size="13">
  <title>OpenLoopOn cut points</title>
  <defs><marker id="arrow" markerWidth="8" markerHeight="8" refX="6" refY="3" orient="auto"><path d="M0,0 L6,3 L0,6 Z" fill="#5b6b7b"/></marker></defs>

  <text x="360" y="22" text-anchor="middle" font-size="15" font-weight="bold">Where OpenLoopOn cuts the cascade</text>

  <!-- Cascade boxes -->
  <rect x="20" y="120" width="115" height="50" rx="6" fill="#eaf2fb" stroke="#5b8def" stroke-width="1.2"/>
  <text x="77" y="142" text-anchor="middle">Position</text>
  <text x="77" y="158" text-anchor="middle" font-size="11" fill="#5b6b7b">+ velocity loops</text>

  <rect x="180" y="120" width="115" height="50" rx="6" fill="#eaf2fb" stroke="#5b8def" stroke-width="1.2"/>
  <text x="237" y="142" text-anchor="middle">Current ref</text>
  <text x="237" y="158" text-anchor="middle" font-size="11" fill="#5b6b7b">summing point</text>

  <rect x="340" y="120" width="115" height="50" rx="6" fill="#eaf2fb" stroke="#5b8def" stroke-width="1.2"/>
  <text x="397" y="142" text-anchor="middle">Current loop</text>
  <text x="397" y="158" text-anchor="middle" font-size="11" fill="#5b6b7b">phase voltages</text>

  <rect x="500" y="120" width="115" height="50" rx="6" fill="#eaf2fb" stroke="#5b8def" stroke-width="1.2"/>
  <text x="557" y="142" text-anchor="middle">PWM</text>
  <text x="557" y="158" text-anchor="middle" font-size="11" fill="#5b6b7b">modulation</text>

  <rect x="650" y="120" width="50" height="50" rx="6" fill="#eaf2fb" stroke="#5b8def" stroke-width="1.2"/>
  <text x="675" y="148" text-anchor="middle">Motor</text>

  <line x1="135" y1="145" x2="180" y2="145" stroke="#5b6b7b" stroke-width="1.2" marker-end="url(#arrow)"/>
  <line x1="295" y1="145" x2="340" y2="145" stroke="#5b6b7b" stroke-width="1.2" marker-end="url(#arrow)"/>
  <line x1="455" y1="145" x2="500" y2="145" stroke="#5b6b7b" stroke-width="1.2" marker-end="url(#arrow)"/>
  <line x1="615" y1="145" x2="650" y2="145" stroke="#5b6b7b" stroke-width="1.2" marker-end="url(#arrow)"/>

  <!-- Cut 1: OpenLoopOn = 1 at current ref -->
  <line x1="167" y1="100" x2="167" y2="190" stroke="#e0736b" stroke-width="2" stroke-dasharray="5,4"/>
  <rect x="105" y="60" width="135" height="38" rx="6" fill="#fdecea" stroke="#e0736b" stroke-width="1.2"/>
  <text x="172" y="78" text-anchor="middle" font-weight="bold" fill="#c0392b">OpenLoopOn = 1</text>
  <text x="172" y="92" text-anchor="middle" font-size="11">OpenLoopCurr drives ref</text>

  <!-- Cut 2: OpenLoopOn = 2 at phase voltage -->
  <line x1="487" y1="100" x2="487" y2="190" stroke="#e0736b" stroke-width="2" stroke-dasharray="5,4"/>
  <rect x="410" y="60" width="170" height="38" rx="6" fill="#fdecea" stroke="#e0736b" stroke-width="1.2"/>
  <text x="495" y="78" text-anchor="middle" font-weight="bold" fill="#c0392b">OpenLoopOn = 2</text>
  <text x="495" y="92" text-anchor="middle" font-size="11">OpenLoopVolt injects sinusoid</text>

  <!-- Bottom note -->
  <text x="360" y="215" text-anchor="middle" font-size="11" fill="#5b6b7b">OpenLoopOn = 0: all loops closed (normal operation)</text>
  <text x="360" y="234" text-anchor="middle" font-size="11" fill="#5b6b7b">Open-loop limits MaxPosErrOL / MaxVelErrOL / MaxForceErrOL apply whenever OpenLoopOn &#8800; 0.</text>
  <text x="360" y="253" text-anchor="middle" font-size="11" fill="#5b6b7b">Cogging compensation and current-reference offset are still added at the current ref.</text>
</svg>
