<svg xmlns="http://www.w3.org/2000/svg" width="720" height="360" viewBox="0 0 720 360" font-family="-apple-system,Segoe UI,Roboto,sans-serif" font-size="13" role="img" aria-label="Third-order double-S velocity and acceleration profile: each accel and decel side is a jerk-up segment, a constant-acceleration plateau and a jerk-down segment; the jerk magnitude is JerkInAcc on the leading side and JerkInDec on the trailing side.">
  <title>Third-order velocity and acceleration profile segments</title>
  <defs>
    <marker id="arrow" markerWidth="8" markerHeight="8" refX="6" refY="3" orient="auto"><path d="M0,0 L6,3 L0,6 Z" fill="#5b6b7b"/></marker>
  </defs>

  <text x="20" y="22" font-size="14" font-weight="bold">Third-order (double-S) profile segments shaped by JerkInAcc / JerkInDec</text>

  <!-- Velocity plot -->
  <text x="60" y="55" font-size="11" fill="#5b6b7b">velocity</text>
  <line x1="60" y1="160" x2="700" y2="160" stroke="#5b6b7b" stroke-width="1.2" marker-end="url(#arrow)"/>
  <line x1="60" y1="160" x2="60" y2="65" stroke="#5b6b7b" stroke-width="1.2"/>
  <path d="M60,160 C80,160 100,80 140,75 L300,75 C340,80 360,160 380,160 L420,160 C440,160 460,90 500,85 L580,85 C620,90 640,160 660,160"
        fill="none" stroke="#5b8def" stroke-width="2.2"/>
  <text x="220" y="68" text-anchor="middle" fill="#5b8def" font-size="11">cruise (Speed)</text>
  <text x="540" y="78" text-anchor="middle" fill="#5b8def" font-size="11">lower cruise</text>

  <!-- Acceleration plot -->
  <text x="60" y="200" font-size="11" fill="#5b6b7b">acceleration</text>
  <line x1="60" y1="280" x2="700" y2="280" stroke="#5b6b7b" stroke-width="1.2" marker-end="url(#arrow)"/>
  <line x1="60" y1="280" x2="60" y2="210" stroke="#5b6b7b" stroke-width="1.2"/>

  <!-- accel segments: 0 -> +A (jerk-up) -> A flat -> 0 (jerk-down) -> 0 (cruise) -> -D (jerk-up neg) -> -D flat -> 0 -->
  <polyline points="60,280 100,220 140,220 180,280 380,280 420,310 460,310 500,280"
            fill="none" stroke="#e0736b" stroke-width="2.2"/>
  <!-- second decel block -->
  <polyline points="580,280 620,310 660,310 690,280"
            fill="none" stroke="#e0736b" stroke-width="2.2"/>

  <!-- Labels for slopes (jerk) on accel block -->
  <text x="80"  y="248" fill="#e0736b" font-size="11">+JerkInAcc</text>
  <text x="155" y="248" fill="#e0736b" font-size="11">&#8722;JerkInAcc</text>
  <text x="120" y="218" fill="#5b6b7b" font-size="11">Accel</text>

  <!-- Labels for slopes on first decel block (placed below the trough) -->
  <text x="395" y="330" fill="#e0736b" font-size="11">&#8722;JerkInDec</text>
  <text x="457" y="330" fill="#e0736b" font-size="11">+JerkInDec</text>

  <text x="370" y="222" text-anchor="middle" fill="#5b6b7b" font-size="11">a = 0 during cruise</text>

  <!-- Caption (clear of plot and labels) -->
  <text x="360" y="350" text-anchor="middle" fill="#5b6b7b" font-size="11">Each side has a jerk-up / constant-a / jerk-down triplet. |jerk| = JerkInAcc on the leading side, JerkInDec on the trailing side.</text>
</svg>
