<svg xmlns="http://www.w3.org/2000/svg" width="700" height="320" viewBox="0 0 700 320" font-family="-apple-system,Segoe UI,Roboto,sans-serif" font-size="13" role="img" aria-label="Over-voltage time window: when VBus first crosses the MaxVBus threshold a timer starts; if VBus stays above MaxVBus for the full MaxVBusTime the drive trips with ConFlt code 1008 and the axis is disabled. A transient that returns below MaxVBus before the timer elapses resets it.">
  <title>MaxVBus + MaxVBusTime &#8211; over-voltage time window</title>
  <defs><marker id="arrow" markerWidth="8" markerHeight="8" refX="6" refY="3" orient="auto"><path d="M0,0 L6,3 L0,6 Z" fill="#5b6b7b"/></marker></defs>

  <text x="20" y="26" font-size="15" font-weight="bold">MaxVBus + MaxVBusTime &#8211; over-voltage time window</text>

  <!-- axes -->
  <line x1="70" y1="60" x2="70" y2="240" stroke="#5b6b7b" marker-end="url(#arrow)"/>
  <line x1="70" y1="240" x2="660" y2="240" stroke="#5b6b7b" marker-end="url(#arrow)"/>
  <text x="58" y="58" text-anchor="end" font-weight="bold">VBus</text>
  <text x="660" y="258" text-anchor="end" font-weight="bold">time</text>

  <!-- MaxVBus threshold line -->
  <line x1="70" y1="120" x2="650" y2="120" stroke="#e0736b" stroke-dasharray="6 4" stroke-width="1.4"/>
  <text x="660" y="124" fill="#b35047" font-size="12">MaxVBus</text>

  <!-- normal band shading -->
  <rect x="70" y="120" width="580" height="120" fill="#eaf2fb" opacity="0.4"/>

  <!-- VBus trace: normal, then climbs over MaxVBus, then trips -->
  <path d="M70,200 L150,200 L180,170 L220,90 L420,90 L420,90" fill="none" stroke="#2c6ed5" stroke-width="2"/>
  <!-- after trip: drops to 0 (axis off) -->
  <line x1="420" y1="90" x2="420" y2="240" stroke="#e0736b" stroke-width="2" stroke-dasharray="3 3"/>

  <!-- time-window highlight (band above the MaxVBus threshold during the window) -->
  <rect x="220" y="90" width="200" height="30" fill="#fdecea" opacity="0.6"/>
  <line x1="220" y1="260" x2="220" y2="120" stroke="#9fb4cc" stroke-dasharray="3 3"/>
  <line x1="420" y1="260" x2="420" y2="120" stroke="#9fb4cc" stroke-dasharray="3 3"/>
  <text x="220" y="278" text-anchor="middle" font-size="11" fill="#555">VBus crosses MaxVBus</text>
  <text x="220" y="293" text-anchor="middle" font-size="11" fill="#555">timer starts</text>

  <text x="420" y="278" text-anchor="middle" font-size="11" fill="#b35047">timer = MaxVBusTime</text>
  <text x="420" y="293" text-anchor="middle" font-size="11" fill="#b35047">trip &#8594; ConFlt 1008</text>

  <!-- bracket showing MaxVBusTime span -->
  <line x1="220" y1="100" x2="420" y2="100" stroke="#5b6b7b" stroke-width="1.2"/>
  <line x1="220" y1="95" x2="220" y2="105" stroke="#5b6b7b" stroke-width="1.2"/>
  <line x1="420" y1="95" x2="420" y2="105" stroke="#5b6b7b" stroke-width="1.2"/>
  <text x="320" y="88" text-anchor="middle" font-weight="bold">MaxVBusTime</text>

  <!-- axis off label -->
  <text x="500" y="180" fill="#b35047" font-size="11">axis disabled</text>

  <text x="20" y="318" fill="#555" font-size="11">A brief transient that drops back below MaxVBus before MaxVBusTime elapses resets the timer and does not trip.</text>
</svg>
