<svg xmlns="http://www.w3.org/2000/svg" width="640" height="360" viewBox="0 0 640 360" font-family="-apple-system,Segoe UI,Roboto,sans-serif" font-size="13">
  <defs><marker id="arrow" markerWidth="8" markerHeight="8" refX="6" refY="3" orient="auto"><path d="M0,0 L6,3 L0,6 Z" fill="#5b6b7b"/></marker></defs>

  <text x="20" y="26" font-size="15" font-weight="bold">Bus-voltage protection bands</text>

  <!-- vertical voltage axis -->
  <line x1="150" y1="40" x2="150" y2="330" stroke="#5b6b7b" marker-end="url(#arrow)"/>
  <text x="120" y="48" text-anchor="end" font-weight="bold">VBus</text>

  <!-- trip zone top (over absolute) -->
  <rect x="160" y="50" width="300" height="40" rx="6" fill="#fdecea" stroke="#e0736b" stroke-width="1.2"/>
  <text x="310" y="75" text-anchor="middle">over MaxVBusAbs &#8594; trip instantly (ConFlt 1023)</text>

  <!-- over MaxVBus with time window -->
  <rect x="160" y="100" width="300" height="40" rx="6" fill="#fdecea" stroke="#e0736b" stroke-width="1.2"/>
  <text x="310" y="125" text-anchor="middle">over MaxVBus for &gt; MaxVBusTime &#8594; trip (ConFlt 1008)</text>

  <!-- normal band -->
  <rect x="160" y="150" width="300" height="80" rx="6" fill="#eaf2fb" stroke="#5b8def" stroke-width="1.2"/>
  <text x="310" y="185" text-anchor="middle" font-weight="bold">Normal operating band</text>
  <text x="310" y="208" text-anchor="middle">warnings reported in StatReg as VBus</text>
  <text x="310" y="224" text-anchor="middle">nears either limit</text>

  <!-- under MinVBus -->
  <rect x="160" y="240" width="300" height="40" rx="6" fill="#fdecea" stroke="#e0736b" stroke-width="1.2"/>
  <text x="310" y="265" text-anchor="middle">at/below MinVBus &#8594; trip instantly (ConFlt 1009)</text>

  <!-- threshold tick labels -->
  <line x1="145" y1="95" x2="465" y2="95" stroke="#9fb4cc" stroke-dasharray="4 3"/>
  <text x="475" y="99" fill="#555">MaxVBusAbs</text>
  <line x1="145" y1="145" x2="465" y2="145" stroke="#9fb4cc" stroke-dasharray="4 3"/>
  <text x="475" y="149" fill="#555">MaxVBus</text>
  <line x1="145" y1="240" x2="465" y2="240" stroke="#9fb4cc" stroke-dasharray="4 3"/>
  <text x="475" y="244" fill="#555">MinVBus</text>

  <text x="20" y="320" fill="#555" font-size="11">Over-voltage tolerates MaxVBusTime of excess; the absolute ceiling and under-voltage trips act with no delay.</text>
</svg>
