<svg xmlns="http://www.w3.org/2000/svg" width="784" height="150" font-family="Segoe UI,Arial,sans-serif">
<text x="8" y="18" font-size="13" font-weight="bold">StatReg — 32-bit layout (bit 31 … 0)</text>
<rect x="8" y="44" width="23" height="30" fill="#f3b6ad" stroke="#8a929b" stroke-width="0.6"/>
<text x="20.0" y="56" font-size="8" text-anchor="middle">31</text>
<text x="20.0" y="68" font-size="7" text-anchor="middle">STALL</text>
<rect x="32" y="44" width="23" height="30" fill="#cfe9d4" stroke="#8a929b" stroke-width="0.6"/>
<text x="44.0" y="56" font-size="8" text-anchor="middle">30</text>
<text x="44.0" y="68" font-size="7" text-anchor="middle">HOME</text>
<rect x="56" y="44" width="23" height="30" fill="#e0d2f0" stroke="#8a929b" stroke-width="0.6"/>
<text x="68.0" y="56" font-size="8" text-anchor="middle">29</text>
<text x="68.0" y="68" font-size="7" text-anchor="middle">SBrk</text>
<rect x="80" y="44" width="23" height="30" fill="#e0d2f0" stroke="#8a929b" stroke-width="0.6"/>
<text x="92.0" y="56" font-size="8" text-anchor="middle">28</text>
<text x="92.0" y="68" font-size="7" text-anchor="middle">DBrk</text>
<rect x="104" y="44" width="23" height="30" fill="#e2e4e8" stroke="#8a929b" stroke-width="0.6"/>
<text x="116.0" y="56" font-size="8" text-anchor="middle">27</text>
<text x="116.0" y="68" font-size="7" text-anchor="middle">Fcalc</text>
<rect x="128" y="44" width="23" height="30" fill="#e2e4e8" stroke="#8a929b" stroke-width="0.6"/>
<text x="140.0" y="56" font-size="8" text-anchor="middle">26</text>
<text x="140.0" y="68" font-size="7" text-anchor="middle">FmodD</text>
<rect x="152" y="44" width="23" height="30" fill="#f0f1f3" stroke="#8a929b" stroke-width="0.6"/>
<text x="164.0" y="56" font-size="8" text-anchor="middle">25</text>
<text x="164.0" y="68" font-size="7" text-anchor="middle">-</text>
<rect x="176" y="44" width="23" height="30" fill="#f0f1f3" stroke="#8a929b" stroke-width="0.6"/>
<text x="188.0" y="56" font-size="8" text-anchor="middle">24</text>
<text x="188.0" y="68" font-size="7" text-anchor="middle">-</text>
<rect x="200" y="44" width="23" height="30" fill="#f7d7b0" stroke="#8a929b" stroke-width="0.6"/>
<text x="212.0" y="56" font-size="8" text-anchor="middle">23</text>
<text x="212.0" y="68" font-size="7" text-anchor="middle">Wsat</text>
<rect x="224" y="44" width="23" height="30" fill="#f7d7b0" stroke="#8a929b" stroke-width="0.6"/>
<text x="236.0" y="56" font-size="8" text-anchor="middle">22</text>
<text x="236.0" y="68" font-size="7" text-anchor="middle">Vsat</text>
<rect x="248" y="44" width="23" height="30" fill="#f7d7b0" stroke="#8a929b" stroke-width="0.6"/>
<text x="260.0" y="56" font-size="8" text-anchor="middle">21</text>
<text x="260.0" y="68" font-size="7" text-anchor="middle">Isat</text>
<rect x="272" y="44" width="23" height="30" fill="#cfe0f5" stroke="#8a929b" stroke-width="0.6"/>
<text x="284.0" y="56" font-size="8" text-anchor="middle">20</text>
<text x="284.0" y="68" font-size="7" text-anchor="middle">FwdP</text>
<rect x="296" y="44" width="23" height="30" fill="#cfe0f5" stroke="#8a929b" stroke-width="0.6"/>
<text x="308.0" y="56" font-size="8" text-anchor="middle">19</text>
<text x="308.0" y="68" font-size="7" text-anchor="middle">RevP</text>
<rect x="320" y="44" width="23" height="30" fill="#cfe0f5" stroke="#8a929b" stroke-width="0.6"/>
<text x="332.0" y="56" font-size="8" text-anchor="middle">18</text>
<text x="332.0" y="68" font-size="7" text-anchor="middle">FLS</text>
<rect x="344" y="44" width="23" height="30" fill="#cfe0f5" stroke="#8a929b" stroke-width="0.6"/>
<text x="356.0" y="56" font-size="8" text-anchor="middle">17</text>
<text x="356.0" y="68" font-size="7" text-anchor="middle">RLS</text>
<rect x="368" y="44" width="23" height="30" fill="#fde7b3" stroke="#8a929b" stroke-width="0.6"/>
<text x="380.0" y="56" font-size="8" text-anchor="middle">16</text>
<text x="380.0" y="68" font-size="7" text-anchor="middle">wn</text>
<rect x="392" y="44" width="23" height="30" fill="#fde7b3" stroke="#8a929b" stroke-width="0.6"/>
<text x="404.0" y="56" font-size="8" text-anchor="middle">15</text>
<text x="404.0" y="68" font-size="7" text-anchor="middle">MTmp</text>
<rect x="416" y="44" width="23" height="30" fill="#fde7b3" stroke="#8a929b" stroke-width="0.6"/>
<text x="428.0" y="56" font-size="8" text-anchor="middle">14</text>
<text x="428.0" y="68" font-size="7" text-anchor="middle">wn</text>
<rect x="440" y="44" width="23" height="30" fill="#fde7b3" stroke="#8a929b" stroke-width="0.6"/>
<text x="452.0" y="56" font-size="8" text-anchor="middle">13</text>
<text x="452.0" y="68" font-size="7" text-anchor="middle">Sat</text>
<rect x="464" y="44" width="23" height="30" fill="#fde7b3" stroke="#8a929b" stroke-width="0.6"/>
<text x="476.0" y="56" font-size="8" text-anchor="middle">12</text>
<text x="476.0" y="68" font-size="7" text-anchor="middle">wn</text>
<rect x="488" y="44" width="23" height="30" fill="#fde7b3" stroke="#8a929b" stroke-width="0.6"/>
<text x="500.0" y="56" font-size="8" text-anchor="middle">11</text>
<text x="500.0" y="68" font-size="7" text-anchor="middle">PTmp</text>
<rect x="512" y="44" width="23" height="30" fill="#fde7b3" stroke="#8a929b" stroke-width="0.6"/>
<text x="524.0" y="56" font-size="8" text-anchor="middle">10</text>
<text x="524.0" y="68" font-size="7" text-anchor="middle">wn</text>
<rect x="536" y="44" width="23" height="30" fill="#fde7b3" stroke="#8a929b" stroke-width="0.6"/>
<text x="548.0" y="56" font-size="8" text-anchor="middle">9</text>
<text x="548.0" y="68" font-size="7" text-anchor="middle">Curr</text>
<rect x="560" y="44" width="23" height="30" fill="#fde7b3" stroke="#8a929b" stroke-width="0.6"/>
<text x="572.0" y="56" font-size="8" text-anchor="middle">8</text>
<text x="572.0" y="68" font-size="7" text-anchor="middle">wn</text>
<rect x="584" y="44" width="23" height="30" fill="#fde7b3" stroke="#8a929b" stroke-width="0.6"/>
<text x="596.0" y="56" font-size="8" text-anchor="middle">7</text>
<text x="596.0" y="68" font-size="7" text-anchor="middle">VBus</text>
<rect x="608" y="44" width="23" height="30" fill="#f6c9c2" stroke="#8a929b" stroke-width="0.6"/>
<text x="620.0" y="56" font-size="8" text-anchor="middle">6</text>
<text x="620.0" y="68" font-size="7" text-anchor="middle">Vabs</text>
<rect x="632" y="44" width="23" height="30" fill="#cfe9d4" stroke="#8a929b" stroke-width="0.6"/>
<text x="644.0" y="56" font-size="8" text-anchor="middle">5</text>
<text x="644.0" y="68" font-size="7" text-anchor="middle">INIT</text>
<rect x="656" y="44" width="23" height="30" fill="#f6c9c2" stroke="#8a929b" stroke-width="0.6"/>
<text x="668.0" y="56" font-size="8" text-anchor="middle">4</text>
<text x="668.0" y="68" font-size="7" text-anchor="middle">V<min</text>
<rect x="680" y="44" width="23" height="30" fill="#f6c9c2" stroke="#8a929b" stroke-width="0.6"/>
<text x="692.0" y="56" font-size="8" text-anchor="middle">3</text>
<text x="692.0" y="68" font-size="7" text-anchor="middle">V>max</text>
<rect x="704" y="44" width="23" height="30" fill="#f0f1f3" stroke="#8a929b" stroke-width="0.6"/>
<text x="716.0" y="56" font-size="8" text-anchor="middle">2</text>
<text x="716.0" y="68" font-size="7" text-anchor="middle">-</text>
<rect x="728" y="44" width="23" height="30" fill="#cfe9d4" stroke="#8a929b" stroke-width="0.6"/>
<text x="740.0" y="56" font-size="8" text-anchor="middle">1</text>
<text x="740.0" y="68" font-size="7" text-anchor="middle">REGN</text>
<rect x="752" y="44" width="23" height="30" fill="#cfe9d4" stroke="#8a929b" stroke-width="0.6"/>
<text x="764.0" y="56" font-size="8" text-anchor="middle">0</text>
<text x="764.0" y="68" font-size="7" text-anchor="middle">CMT</text>
<line x1="560" y1="77" x2="607" y2="77" stroke="#9a6700" stroke-width="1"/>
<text x="583.5" y="87" font-size="7" text-anchor="middle" fill="#9a6700">VBus lvl</text>
<line x1="512" y1="77" x2="559" y2="77" stroke="#9a6700" stroke-width="1"/>
<text x="535.5" y="87" font-size="7" text-anchor="middle" fill="#9a6700">Curr lvl</text>
<line x1="464" y1="77" x2="511" y2="77" stroke="#9a6700" stroke-width="1"/>
<text x="487.5" y="87" font-size="7" text-anchor="middle" fill="#9a6700">Temp lvl</text>
<line x1="416" y1="77" x2="463" y2="77" stroke="#9a6700" stroke-width="1"/>
<text x="439.5" y="87" font-size="7" text-anchor="middle" fill="#9a6700">Sat lvl</text>
<line x1="368" y1="77" x2="415" y2="77" stroke="#9a6700" stroke-width="1"/>
<text x="391.5" y="87" font-size="7" text-anchor="middle" fill="#9a6700">MTmp lvl</text>
<rect x="8" y="117" width="11" height="11" fill="#cfe9d4" stroke="#8a929b" stroke-width="0.5"/>
<text x="22" y="126" font-size="8">status</text>
<rect x="54.0" y="117" width="11" height="11" fill="#f6c9c2" stroke="#8a929b" stroke-width="0.5"/>
<text x="68.0" y="126" font-size="8">voltage fault</text>
<rect x="135.0" y="117" width="11" height="11" fill="#fde7b3" stroke="#8a929b" stroke-width="0.5"/>
<text x="149.0" y="126" font-size="8">warning level (2-bit)</text>
<rect x="256.0" y="117" width="11" height="11" fill="#cfe0f5" stroke="#8a929b" stroke-width="0.5"/>
<text x="270.0" y="126" font-size="8">limit</text>
<rect x="297.0" y="117" width="11" height="11" fill="#f7d7b0" stroke="#8a929b" stroke-width="0.5"/>
<text x="311.0" y="126" font-size="8">saturation</text>
<rect x="363.0" y="117" width="11" height="11" fill="#e0d2f0" stroke="#8a929b" stroke-width="0.5"/>
<text x="377.0" y="126" font-size="8">brake</text>
<rect x="404.0" y="117" width="11" height="11" fill="#e2e4e8" stroke="#8a929b" stroke-width="0.5"/>
<text x="418.0" y="126" font-size="8">filters</text>
<rect x="455.0" y="117" width="11" height="11" fill="#f3b6ad" stroke="#8a929b" stroke-width="0.5"/>
<text x="469.0" y="126" font-size="8">fault</text>
<rect x="496.0" y="117" width="11" height="11" fill="#f0f1f3" stroke="#8a929b" stroke-width="0.5"/>
<text x="510.0" y="126" font-size="8">reserved</text>
</svg>