<svg xmlns="http://www.w3.org/2000/svg" width="660" height="330" viewBox="0 0 660 330" font-family="-apple-system,Segoe UI,Roboto,sans-serif" font-size="13">
  <defs><marker id="arrow" markerWidth="8" markerHeight="8" refX="6" refY="3" orient="auto"><path d="M0,0 L6,3 L0,6 Z" fill="#5b6b7b"/></marker></defs>

  <text x="330" y="22" text-anchor="middle" font-size="15" font-weight="bold">CurrCmdVal sequence (CurrCmdSrc = 1)</text>

  <!-- axes -->
  <line x1="80" y1="170" x2="610" y2="170" stroke="#5b6b7b" stroke-width="1"/>
  <line x1="80" y1="50" x2="80" y2="300" stroke="#5b6b7b" stroke-width="1.2"/>
  <text x="72" y="54" text-anchor="end">CurrRef (mA)</text>
  <text x="610" y="188" text-anchor="end">time (ms)</text>

  <!-- value gridlines -->
  <text x="72" y="90" text-anchor="end">364</text>
  <line x1="77" y1="86" x2="83" y2="86" stroke="#5b6b7b"/>
  <text x="72" y="174" text-anchor="end">0</text>
  <text x="72" y="258" text-anchor="end">-500</text>
  <line x1="77" y1="254" x2="83" y2="254" stroke="#5b6b7b"/>

  <!-- CurrRef trace: ramp to 364, hold, ramp to -500, hold, exit -->
  <polyline fill="none" stroke="#5b8def" stroke-width="2.5" points="80,170 130,86 290,86 370,254 550,254"/>
  <polyline fill="none" stroke="#5b8def" stroke-width="2.5" stroke-dasharray="5,4" points="550,254 575,170"/>

  <!-- phase separators -->
  <line x1="130" y1="50" x2="130" y2="300" stroke="#c9d6e3" stroke-dasharray="3,3"/>
  <line x1="290" y1="50" x2="290" y2="300" stroke="#c9d6e3" stroke-dasharray="3,3"/>
  <line x1="370" y1="50" x2="370" y2="300" stroke="#c9d6e3" stroke-dasharray="3,3"/>
  <line x1="550" y1="50" x2="550" y2="300" stroke="#c9d6e3" stroke-dasharray="3,3"/>

  <!-- phase labels -->
  <text x="105" y="316" text-anchor="middle" fill="#5b6b7b" font-size="11">ramp</text>
  <text x="210" y="316" text-anchor="middle" fill="#5b6b7b" font-size="11">hold 500 ms (entry 1)</text>
  <text x="330" y="316" text-anchor="middle" fill="#5b6b7b" font-size="11">ramp</text>
  <text x="460" y="316" text-anchor="middle" fill="#5b6b7b" font-size="11">hold 1000 ms (entry 2)</text>
  <text x="580" y="316" text-anchor="middle" fill="#5b6b7b" font-size="11">exit</text>

  <!-- annotations -->
  <text x="140" y="78" fill="#3a6bd6" font-size="11">CurrCmdVal[1] = 364</text>
  <text x="380" y="272" fill="#3a6bd6" font-size="11">CurrCmdVal[2] = -500</text>

  <!-- exit note -->
  <text x="560" y="120" text-anchor="middle" fill="#5b6b7b" font-size="11">CurrCmdHTime[3] = 0</text>
  <text x="565" y="136" text-anchor="middle" fill="#5b6b7b" font-size="11">&#8594; position mode</text>

  <!-- counter note -->
  <text x="210" y="106" text-anchor="middle" fill="#8a97a5" font-size="11">CurrCmdCntr counts during hold</text>
  <text x="330" y="240" text-anchor="middle" fill="#8a97a5" font-size="11">CurrCmdCntr = 0 while ramping</text>
</svg>
