<svg xmlns="http://www.w3.org/2000/svg" width="640" height="320" viewBox="0 0 640 320" font-family="sans-serif" font-size="12">
  <rect width="640" height="320" fill="#ffffff"/>
  <text x="320" y="22" text-anchor="middle" font-size="14" font-weight="bold">CurrCmdVal sequence (CurrCmdSrc = 1)</text>

  <!-- axes -->
  <line x1="70" y1="160" x2="600" y2="160" stroke="#888" stroke-width="1"/>
  <line x1="70" y1="40" x2="70" y2="290" stroke="#333" stroke-width="1.5"/>
  <text x="62" y="44" text-anchor="end">CurrRef (mA)</text>
  <text x="600" y="178" text-anchor="end">time (ms)</text>

  <!-- zero / value gridlines -->
  <text x="62" y="80" text-anchor="end">364</text>
  <line x1="67" y1="76" x2="73" y2="76" stroke="#333"/>
  <text x="62" y="164" text-anchor="end">0</text>
  <text x="62" y="248" text-anchor="end">-500</text>
  <line x1="67" y1="244" x2="73" y2="244" stroke="#333"/>

  <!-- CurrRef trace -->
  <!-- ramp from 0 to 364 (entry 1 slope), then hold 500ms, then ramp to -500, hold 1000ms, then exit -->
  <polyline fill="none" stroke="#1f77b4" stroke-width="2.5"
    points="70,160 120,76 280,76 360,244 540,244"/>
  <!-- exit drop to position mode (dashed) -->
  <polyline fill="none" stroke="#1f77b4" stroke-width="2.5" stroke-dasharray="5,4"
    points="540,244 560,160"/>

  <!-- phase separators -->
  <line x1="120" y1="40" x2="120" y2="290" stroke="#ccc" stroke-dasharray="3,3"/>
  <line x1="280" y1="40" x2="280" y2="290" stroke="#ccc" stroke-dasharray="3,3"/>
  <line x1="360" y1="40" x2="360" y2="290" stroke="#ccc" stroke-dasharray="3,3"/>
  <line x1="540" y1="40" x2="540" y2="290" stroke="#ccc" stroke-dasharray="3,3"/>

  <!-- phase labels -->
  <text x="95"  y="305" text-anchor="middle" fill="#555">ramp</text>
  <text x="200" y="305" text-anchor="middle" fill="#555">hold 500 ms (entry 1)</text>
  <text x="320" y="305" text-anchor="middle" fill="#555">ramp</text>
  <text x="450" y="305" text-anchor="middle" fill="#555">hold 1000 ms (entry 2)</text>
  <text x="570" y="305" text-anchor="middle" fill="#555">exit</text>

  <!-- annotations -->
  <text x="130" y="68" fill="#1f77b4">CurrCmdVal[1] = 364</text>
  <text x="370" y="262" fill="#1f77b4">CurrCmdVal[2] = -500</text>
  <text x="555" y="150" text-anchor="middle" fill="#777">CurrCmdHTime[2] timer</text>
  <text x="555" y="135" text-anchor="middle" fill="#777">expires &amp; CmdHTime[3]=0</text>
  <text x="565" y="120" text-anchor="middle" fill="#777">-&gt; position mode</text>

  <!-- note: counter only runs during hold -->
  <text x="200" y="62" text-anchor="middle" fill="#999">CmdCntr runs</text>
  <text x="320" y="232" text-anchor="middle" fill="#999">CmdCntr=0</text>
</svg>
