<svg xmlns="http://www.w3.org/2000/svg" width="560" height="200" font-family="sans-serif" font-size="12">
  <text x="10" y="20" font-weight="bold">Spline buffer: fill once, drain every cycle</text>
  <text x="10" y="48">BuffCalc fills the store with one point per sample (index 1 .. [6]):</text>
  <rect x="20" y="58" width="420" height="24" fill="none" stroke="#333"/>
  <line x1="62" y1="58" x2="62" y2="82" stroke="#bbb"/>
  <line x1="104" y1="58" x2="104" y2="82" stroke="#bbb"/>
  <line x1="146" y1="58" x2="146" y2="82" stroke="#bbb"/>
  <line x1="356" y1="58" x2="356" y2="82" stroke="#bbb"/>
  <line x1="398" y1="58" x2="398" y2="82" stroke="#bbb"/>
  <text x="30" y="75">1</text>
  <text x="72" y="75">2</text>
  <text x="114" y="75">3</text>
  <text x="240" y="75">. . .</text>
  <text x="406" y="75">[6]</text>
  <text x="10" y="118">Profiler drains one point per control cycle to PosRef:</text>
  <rect x="120" y="130" width="42" height="24" fill="#cfe3ff" stroke="#333"/>
  <text x="132" y="147">[5]</text>
  <line x1="162" y1="142" x2="300" y2="142" stroke="#333" marker-end="url(#a)"/>
  <text x="310" y="146">PosRef (+ start position)</text>
  <path d="M 141 130 q 40 -22 40 0" fill="none" stroke="#333" marker-end="url(#a)"/>
  <text x="186" y="120">index advances each cycle</text>
  <text x="20" y="184">At index [5] &gt; [6]: wrap [5] to 1, increment cycle [4]; end when [4] &gt; BuffCycles.</text>
  <defs>
    <marker id="a" markerWidth="8" markerHeight="8" refX="6" refY="3" orient="auto">
      <path d="M0,0 L6,3 L0,6 Z" fill="#333"/>
    </marker>
  </defs>
</svg>
