<svg xmlns="http://www.w3.org/2000/svg" width="640" height="260" viewBox="0 0 640 260" font-family="sans-serif" font-size="13">
  <rect x="0" y="0" width="640" height="260" fill="#ffffff"/>

  <!-- Direct injection -->
  <text x="160" y="24" text-anchor="middle" font-weight="bold">Direct injection</text>
  <text x="160" y="42" text-anchor="middle" fill="#555">preceding signal ignored</text>

  <!-- upstream command, cut off -->
  <line x1="20" y1="100" x2="120" y2="100" stroke="#999" stroke-width="2" stroke-dasharray="6 5"/>
  <text x="70" y="92" text-anchor="middle" fill="#999">loop output</text>
  <line x1="116" y1="92" x2="128" y2="108" stroke="#cc0000" stroke-width="2"/>
  <line x1="128" y1="92" x2="116" y2="108" stroke="#cc0000" stroke-width="2"/>

  <!-- injection feed -->
  <line x1="160" y1="170" x2="160" y2="120" stroke="#000" stroke-width="2"/>
  <polygon points="160,112 156,122 164,122" fill="#000"/>
  <text x="160" y="190" text-anchor="middle">injection</text>

  <!-- node -->
  <circle cx="160" cy="100" r="14" fill="none" stroke="#000" stroke-width="2"/>
  <line x1="174" y1="100" x2="280" y2="100" stroke="#000" stroke-width="2"/>
  <polygon points="288,100 278,96 278,104" fill="#000"/>
  <text x="232" y="92" text-anchor="middle">command</text>

  <!-- Additive injection -->
  <text x="480" y="24" text-anchor="middle" font-weight="bold">Additive injection</text>
  <text x="480" y="42" text-anchor="middle" fill="#555">summed with loop output</text>

  <line x1="340" y1="100" x2="466" y2="100" stroke="#000" stroke-width="2"/>
  <polygon points="466,100 456,96 456,104" fill="#000"/>
  <text x="400" y="92" text-anchor="middle">loop output</text>

  <line x1="480" y1="170" x2="480" y2="120" stroke="#000" stroke-width="2"/>
  <polygon points="480,112 476,122 484,122" fill="#000"/>
  <text x="480" y="190" text-anchor="middle">injection</text>

  <circle cx="480" cy="100" r="14" fill="none" stroke="#000" stroke-width="2"/>
  <text x="480" y="105" text-anchor="middle" font-size="16">+</text>
  <line x1="494" y1="100" x2="600" y2="100" stroke="#000" stroke-width="2"/>
  <polygon points="608,100 598,96 598,104" fill="#000"/>
  <text x="552" y="92" text-anchor="middle">command</text>
</svg>
