<svg xmlns="http://www.w3.org/2000/svg" width="660" height="220" viewBox="0 0 660 220" font-family="-apple-system,Segoe UI,Roboto,sans-serif" font-size="13" role="img" aria-label="Hall state to electrical angle map (default middle-angle map): each 60 degree electrical sector corresponds to one legal Hall state (1, 5, 4, 6, 2, 3 in order); values 0 and 7 are illegal. The HallsAngle entry for each state holds the angle at the centre of that sector (30, 90, 150, 210, 270, 330 degrees).">
  <title>Hall state to electrical angle (middle-angle map)</title>
  <defs>
    <marker id="arrow" markerWidth="8" markerHeight="8" refX="6" refY="3" orient="auto">
      <path d="M0,0 L6,3 L0,6 Z" fill="#5b6b7b"/>
    </marker>
  </defs>

  <text x="12" y="20" font-size="13" font-weight="bold">Hall state &#8594; electrical angle (default middle-angle map)</text>
  <text x="12" y="38" font-size="11" fill="#5b6b7b">Each 60&#176; electrical sector corresponds to one legal Hall state (1&#8211;6). Values 0 and 7 are illegal.</text>

  <!-- axis -->
  <line x1="60" y1="130" x2="620" y2="130" stroke="#5b6b7b" stroke-width="1.4" marker-end="url(#arrow)"/>
  <text x="340" y="200" font-size="11" text-anchor="middle">electrical angle (degrees)</text>

  <!-- sector blocks: width 90 px per 60 deg, sectors 1..6 -->
  <rect x="60"  y="70" width="90" height="48" rx="4" fill="#eaf2fb" stroke="#5b8def" stroke-width="1"/>
  <rect x="150" y="70" width="90" height="48" rx="4" fill="#eaf2fb" stroke="#5b8def" stroke-width="1"/>
  <rect x="240" y="70" width="90" height="48" rx="4" fill="#eaf2fb" stroke="#5b8def" stroke-width="1"/>
  <rect x="330" y="70" width="90" height="48" rx="4" fill="#eaf2fb" stroke="#5b8def" stroke-width="1"/>
  <rect x="420" y="70" width="90" height="48" rx="4" fill="#eaf2fb" stroke="#5b8def" stroke-width="1"/>
  <rect x="510" y="70" width="90" height="48" rx="4" fill="#eaf2fb" stroke="#5b8def" stroke-width="1"/>

  <!-- sector labels (state, binary, centre angle) -->
  <text x="105" y="88"  font-size="11" text-anchor="middle">state 5</text>
  <text x="105" y="104" font-size="10" text-anchor="middle" fill="#5b6b7b">101 &#183; 30&#176;</text>
  <text x="195" y="88"  font-size="11" text-anchor="middle">state 1</text>
  <text x="195" y="104" font-size="10" text-anchor="middle" fill="#5b6b7b">001 &#183; 90&#176;</text>
  <text x="285" y="88"  font-size="11" text-anchor="middle">state 3</text>
  <text x="285" y="104" font-size="10" text-anchor="middle" fill="#5b6b7b">011 &#183; 150&#176;</text>
  <text x="375" y="88"  font-size="11" text-anchor="middle">state 2</text>
  <text x="375" y="104" font-size="10" text-anchor="middle" fill="#5b6b7b">010 &#183; 210&#176;</text>
  <text x="465" y="88"  font-size="11" text-anchor="middle">state 6</text>
  <text x="465" y="104" font-size="10" text-anchor="middle" fill="#5b6b7b">110 &#183; 270&#176;</text>
  <text x="555" y="88"  font-size="11" text-anchor="middle">state 4</text>
  <text x="555" y="104" font-size="10" text-anchor="middle" fill="#5b6b7b">100 &#183; 330&#176;</text>

  <!-- tick marks at boundaries -->
  <line x1="60"  y1="124" x2="60"  y2="136" stroke="#5b6b7b"/>
  <line x1="150" y1="124" x2="150" y2="136" stroke="#5b6b7b"/>
  <line x1="240" y1="124" x2="240" y2="136" stroke="#5b6b7b"/>
  <line x1="330" y1="124" x2="330" y2="136" stroke="#5b6b7b"/>
  <line x1="420" y1="124" x2="420" y2="136" stroke="#5b6b7b"/>
  <line x1="510" y1="124" x2="510" y2="136" stroke="#5b6b7b"/>
  <line x1="600" y1="124" x2="600" y2="136" stroke="#5b6b7b"/>

  <!-- tick labels (sector boundaries) -->
  <text x="60"  y="152" font-size="10" text-anchor="middle">0</text>
  <text x="150" y="152" font-size="10" text-anchor="middle">60</text>
  <text x="240" y="152" font-size="10" text-anchor="middle">120</text>
  <text x="330" y="152" font-size="10" text-anchor="middle">180</text>
  <text x="420" y="152" font-size="10" text-anchor="middle">240</text>
  <text x="510" y="152" font-size="10" text-anchor="middle">300</text>
  <text x="600" y="152" font-size="10" text-anchor="middle">360</text>

  <!-- centre-angle dots -->
  <circle cx="105" cy="130" r="3" fill="#e0736b"/>
  <circle cx="195" cy="130" r="3" fill="#e0736b"/>
  <circle cx="285" cy="130" r="3" fill="#e0736b"/>
  <circle cx="375" cy="130" r="3" fill="#e0736b"/>
  <circle cx="465" cy="130" r="3" fill="#e0736b"/>
  <circle cx="555" cy="130" r="3" fill="#e0736b"/>

  <text x="340" y="178" text-anchor="middle" font-size="11" fill="#5b6b7b">red dots = centre angle stored in HallsAngle[1..6]</text>
</svg>
