<svg xmlns="http://www.w3.org/2000/svg" width="660" height="220" viewBox="0 0 660 220" font-family="-apple-system,Segoe UI,Roboto,sans-serif" font-size="13" role="img" aria-label="Hall state to electrical angle map (default middle-angle map): each 60 degree electrical sector corresponds to one legal Hall state (5, 1, 3, 2, 6, 4 in order); values 0 and 7 are illegal. The HallsAngle entry for each state holds the angle at the centre of that sector (60, 120, 180, 240, 300, 360 degrees).">
  <title>Hall state to electrical angle (middle-angle map)</title>
  <defs>
    <marker id="arrow" markerWidth="8" markerHeight="8" refX="6" refY="3" orient="auto">
      <path d="M0,0 L6,3 L0,6 Z" fill="#5b6b7b"/>
    </marker>
  </defs>

  <text x="12" y="20" font-size="13" font-weight="bold">Hall state &#8594; electrical angle (default middle-angle map)</text>
  <text x="12" y="38" font-size="11" fill="#5b6b7b">Each 60&#176; electrical sector corresponds to one legal Hall state (1&#8211;6). Values 0 and 7 are illegal.</text>

  <!-- axis -->
  <line x1="60" y1="130" x2="620" y2="130" stroke="#5b6b7b" stroke-width="1.4" marker-end="url(#arrow)"/>
  <text x="340" y="200" font-size="11" text-anchor="middle">electrical angle (degrees)</text>

  <!-- sector blocks: width 90 px per 60 deg, sectors centred at 60, 120, 180, 240, 300, 360 -->
  <!-- sector centred at 60 spans 30 to 90 (x: 105 to 150 in plot since x=60 maps to angle 0) -->
  <!-- Map: angle 0 -> x=60, angle 360 -> x=600, so x = 60 + angle*1.5/1 (where 1.5 = 90/60) -->
  <!-- Each sector spans 60 deg = 90 px, centred at given angle -->
  <rect x="105" y="70" width="90" height="48" rx="4" fill="#eaf2fb" stroke="#5b8def" stroke-width="1"/>
  <rect x="195" y="70" width="90" height="48" rx="4" fill="#eaf2fb" stroke="#5b8def" stroke-width="1"/>
  <rect x="285" y="70" width="90" height="48" rx="4" fill="#eaf2fb" stroke="#5b8def" stroke-width="1"/>
  <rect x="375" y="70" width="90" height="48" rx="4" fill="#eaf2fb" stroke="#5b8def" stroke-width="1"/>
  <rect x="465" y="70" width="90" height="48" rx="4" fill="#eaf2fb" stroke="#5b8def" stroke-width="1"/>
  <!-- sector centred at 360 spans 330 to 390 — half visible from x=555 to x=600 (cut at 360); the wrap-around half at angle 0-30 is at x=60 to x=105 -->
  <rect x="555" y="70" width="45" height="48" rx="4" fill="#eaf2fb" stroke="#5b8def" stroke-width="1"/>
  <rect x="60"  y="70" width="45" height="48" rx="4" fill="#eaf2fb" stroke="#5b8def" stroke-width="1"/>

  <!-- sector labels (state, binary, centre angle) -->
  <text x="150" y="88"  font-size="11" text-anchor="middle">state 5</text>
  <text x="150" y="104" font-size="10" text-anchor="middle" fill="#5b6b7b">101 &#183; 60&#176;</text>
  <text x="240" y="88"  font-size="11" text-anchor="middle">state 1</text>
  <text x="240" y="104" font-size="10" text-anchor="middle" fill="#5b6b7b">001 &#183; 120&#176;</text>
  <text x="330" y="88"  font-size="11" text-anchor="middle">state 3</text>
  <text x="330" y="104" font-size="10" text-anchor="middle" fill="#5b6b7b">011 &#183; 180&#176;</text>
  <text x="420" y="88"  font-size="11" text-anchor="middle">state 2</text>
  <text x="420" y="104" font-size="10" text-anchor="middle" fill="#5b6b7b">010 &#183; 240&#176;</text>
  <text x="510" y="88"  font-size="11" text-anchor="middle">state 6</text>
  <text x="510" y="104" font-size="10" text-anchor="middle" fill="#5b6b7b">110 &#183; 300&#176;</text>
  <!-- state 4 wraps; show its label on both halves with the centre at 360 (== 0) -->
  <text x="82"  y="88"  font-size="11" text-anchor="middle">state 4</text>
  <text x="82"  y="104" font-size="10" text-anchor="middle" fill="#5b6b7b">100 &#183; 360&#176;</text>
  <text x="578" y="88"  font-size="11" text-anchor="middle">state 4</text>
  <text x="578" y="104" font-size="10" text-anchor="middle" fill="#5b6b7b">100 &#183; 360&#176;</text>

  <!-- tick marks at sector boundaries (30, 90, 150, 210, 270, 330) and the 0/360 endpoints -->
  <line x1="60"  y1="124" x2="60"  y2="136" stroke="#5b6b7b"/>
  <line x1="105" y1="124" x2="105" y2="136" stroke="#5b6b7b"/>
  <line x1="195" y1="124" x2="195" y2="136" stroke="#5b6b7b"/>
  <line x1="285" y1="124" x2="285" y2="136" stroke="#5b6b7b"/>
  <line x1="375" y1="124" x2="375" y2="136" stroke="#5b6b7b"/>
  <line x1="465" y1="124" x2="465" y2="136" stroke="#5b6b7b"/>
  <line x1="555" y1="124" x2="555" y2="136" stroke="#5b6b7b"/>
  <line x1="600" y1="124" x2="600" y2="136" stroke="#5b6b7b"/>

  <!-- tick labels -->
  <text x="60"  y="152" font-size="10" text-anchor="middle">0</text>
  <text x="105" y="152" font-size="10" text-anchor="middle">30</text>
  <text x="195" y="152" font-size="10" text-anchor="middle">90</text>
  <text x="285" y="152" font-size="10" text-anchor="middle">150</text>
  <text x="375" y="152" font-size="10" text-anchor="middle">210</text>
  <text x="465" y="152" font-size="10" text-anchor="middle">270</text>
  <text x="555" y="152" font-size="10" text-anchor="middle">330</text>
  <text x="600" y="152" font-size="10" text-anchor="middle">360</text>

  <!-- centre-angle dots at 60, 120, 180, 240, 300, 360 -->
  <circle cx="150" cy="130" r="3" fill="#e0736b"/>
  <circle cx="240" cy="130" r="3" fill="#e0736b"/>
  <circle cx="330" cy="130" r="3" fill="#e0736b"/>
  <circle cx="420" cy="130" r="3" fill="#e0736b"/>
  <circle cx="510" cy="130" r="3" fill="#e0736b"/>
  <circle cx="600" cy="130" r="3" fill="#e0736b"/>

  <text x="340" y="178" text-anchor="middle" font-size="11" fill="#5b6b7b">red dots = centre angle stored in HallsAngle[1..6] (default 60, 120, 180, 240, 300, 360)</text>
</svg>
