<svg xmlns="http://www.w3.org/2000/svg" width="780" height="320" viewBox="0 0 780 320" font-family="-apple-system,Segoe UI,Roboto,sans-serif" font-size="13" role="img" aria-label="HallsAngle interpretation per HallsAngleSw: when HallsAngleSw equals 0 the six entries hold the angle at the centre of each Hall sector (firmware defaults 60, 120, 180, 240, 300, 360); when HallsAngleSw equals 1 (v5 only) the entries hold the angle at each sector boundary (switch point: 30, 90, 150, 210, 270, 330).">
  <title>HallsAngle entry interpretation per HallsAngleSw</title>
  <defs>
    <marker id="arrow" markerWidth="8" markerHeight="8" refX="6" refY="3" orient="auto">
      <path d="M0,0 L6,3 L0,6 Z" fill="#5b6b7b"/>
    </marker>
  </defs>

  <text x="20" y="20" font-weight="bold">HallsAngle &#8212; entry interpretation per HallsAngleSw</text>

  <!-- Geometry: x-axis from 0 deg (x=60) to 360 deg (x=720). 1 deg = (720-60)/360 = 1.833... px -->
  <!-- So angle a -> x = 60 + a*1.8333 -->
  <!-- Sector boundaries (mode 0) are at angle 30, 90, 150, 210, 270, 330 (px 115, 225, 335, 445, 555, 665) -->
  <!-- Sector centres are at angle 60, 120, 180, 240, 300, 360 (px 170, 280, 390, 500, 610, 720) -->
  <!-- State 4 sector wraps around 360 (= 0): spans 330..360 and 0..30 (px 665..720 and 60..115) -->

  <!-- TOP: middle-angle map -->
  <text x="20" y="46" font-weight="bold" font-size="12">HallsAngleSw = 0 (default, v4 and v5): centre of sector</text>

  <line x1="60" y1="100" x2="720" y2="100" stroke="#5b6b7b" stroke-width="1.4" marker-end="url(#arrow)"/>
  <text x="730" y="104" font-size="11">deg</text>

  <!-- sector boundary ticks at 30, 90, 150, 210, 270, 330; plus 0 and 360 endpoints -->
  <line x1="60"  y1="92" x2="60"  y2="108" stroke="#5b6b7b"/>
  <line x1="115" y1="92" x2="115" y2="108" stroke="#5b6b7b"/>
  <line x1="225" y1="92" x2="225" y2="108" stroke="#5b6b7b"/>
  <line x1="335" y1="92" x2="335" y2="108" stroke="#5b6b7b"/>
  <line x1="445" y1="92" x2="445" y2="108" stroke="#5b6b7b"/>
  <line x1="555" y1="92" x2="555" y2="108" stroke="#5b6b7b"/>
  <line x1="665" y1="92" x2="665" y2="108" stroke="#5b6b7b"/>
  <line x1="720" y1="92" x2="720" y2="108" stroke="#5b6b7b"/>

  <text x="60"  y="124" text-anchor="middle" font-size="10">0</text>
  <text x="115" y="124" text-anchor="middle" font-size="10">30</text>
  <text x="225" y="124" text-anchor="middle" font-size="10">90</text>
  <text x="335" y="124" text-anchor="middle" font-size="10">150</text>
  <text x="445" y="124" text-anchor="middle" font-size="10">210</text>
  <text x="555" y="124" text-anchor="middle" font-size="10">270</text>
  <text x="665" y="124" text-anchor="middle" font-size="10">330</text>
  <text x="720" y="124" text-anchor="middle" font-size="10">360</text>

  <!-- sector shading bands; each sector is 60 deg = 110 px wide -->
  <rect x="115" y="68" width="110" height="24" fill="#eaf2fb" stroke="#5b8def" stroke-width="0.8"/>
  <rect x="225" y="68" width="110" height="24" fill="#eaf2fb" stroke="#5b8def" stroke-width="0.8"/>
  <rect x="335" y="68" width="110" height="24" fill="#eaf2fb" stroke="#5b8def" stroke-width="0.8"/>
  <rect x="445" y="68" width="110" height="24" fill="#eaf2fb" stroke="#5b8def" stroke-width="0.8"/>
  <rect x="555" y="68" width="110" height="24" fill="#eaf2fb" stroke="#5b8def" stroke-width="0.8"/>
  <!-- state 4 sector wraps: 330..360 and 0..30 -->
  <rect x="665" y="68" width="55"  height="24" fill="#eaf2fb" stroke="#5b8def" stroke-width="0.8"/>
  <rect x="60"  y="68" width="55"  height="24" fill="#eaf2fb" stroke="#5b8def" stroke-width="0.8"/>

  <!-- Hall values per sector (centered at the sector midpoint) -->
  <text x="170" y="84" text-anchor="middle" font-size="11">HallsValue=5</text>
  <text x="280" y="84" text-anchor="middle" font-size="11">HallsValue=1</text>
  <text x="390" y="84" text-anchor="middle" font-size="11">HallsValue=3</text>
  <text x="500" y="84" text-anchor="middle" font-size="11">HallsValue=2</text>
  <text x="610" y="84" text-anchor="middle" font-size="11">HallsValue=6</text>
  <!-- state 4 wraps: show on both halves -->
  <text x="88"  y="84" text-anchor="middle" font-size="11">HallsValue=4</text>
  <text x="692" y="84" text-anchor="middle" font-size="11">HallsValue=4</text>

  <!-- middle-angle dots at 60, 120, 180, 240, 300, 360 -->
  <circle cx="170" cy="100" r="4" fill="#e0736b"/>
  <circle cx="280" cy="100" r="4" fill="#e0736b"/>
  <circle cx="390" cy="100" r="4" fill="#e0736b"/>
  <circle cx="500" cy="100" r="4" fill="#e0736b"/>
  <circle cx="610" cy="100" r="4" fill="#e0736b"/>
  <circle cx="720" cy="100" r="4" fill="#e0736b"/>

  <text x="170" y="155" text-anchor="middle" font-size="11" fill="#e0736b">60</text>
  <text x="280" y="155" text-anchor="middle" font-size="11" fill="#e0736b">120</text>
  <text x="390" y="155" text-anchor="middle" font-size="11" fill="#e0736b">180</text>
  <text x="500" y="155" text-anchor="middle" font-size="11" fill="#e0736b">240</text>
  <text x="610" y="155" text-anchor="middle" font-size="11" fill="#e0736b">300</text>
  <text x="720" y="155" text-anchor="middle" font-size="11" fill="#e0736b">360</text>
  <text x="390" y="175" text-anchor="middle" font-size="11" fill="#5b6b7b">HallsAngle[1..6] = angle at the centre of each sector (firmware defaults: 60, 120, 180, 240, 300, 360)</text>

  <!-- BOTTOM: switch-angle map -->
  <text x="20" y="218" font-weight="bold" font-size="12">HallsAngleSw = 1 (v5 only): transition between adjacent sectors</text>

  <line x1="60" y1="258" x2="720" y2="258" stroke="#5b6b7b" stroke-width="1.4" marker-end="url(#arrow)"/>
  <text x="730" y="262" font-size="11">deg</text>

  <line x1="60"  y1="250" x2="60"  y2="266" stroke="#5b6b7b"/>
  <line x1="115" y1="250" x2="115" y2="266" stroke="#5b6b7b"/>
  <line x1="225" y1="250" x2="225" y2="266" stroke="#5b6b7b"/>
  <line x1="335" y1="250" x2="335" y2="266" stroke="#5b6b7b"/>
  <line x1="445" y1="250" x2="445" y2="266" stroke="#5b6b7b"/>
  <line x1="555" y1="250" x2="555" y2="266" stroke="#5b6b7b"/>
  <line x1="665" y1="250" x2="665" y2="266" stroke="#5b6b7b"/>
  <line x1="720" y1="250" x2="720" y2="266" stroke="#5b6b7b"/>

  <!-- transition dots at sector boundaries (30, 90, 150, 210, 270, 330) -->
  <circle cx="115" cy="258" r="4" fill="#e0736b"/>
  <circle cx="225" cy="258" r="4" fill="#e0736b"/>
  <circle cx="335" cy="258" r="4" fill="#e0736b"/>
  <circle cx="445" cy="258" r="4" fill="#e0736b"/>
  <circle cx="555" cy="258" r="4" fill="#e0736b"/>
  <circle cx="665" cy="258" r="4" fill="#e0736b"/>

  <text x="115" y="286" text-anchor="middle" font-size="11" fill="#e0736b">30</text>
  <text x="225" y="286" text-anchor="middle" font-size="11" fill="#e0736b">90</text>
  <text x="335" y="286" text-anchor="middle" font-size="11" fill="#e0736b">150</text>
  <text x="445" y="286" text-anchor="middle" font-size="11" fill="#e0736b">210</text>
  <text x="555" y="286" text-anchor="middle" font-size="11" fill="#e0736b">270</text>
  <text x="665" y="286" text-anchor="middle" font-size="11" fill="#e0736b">330</text>
  <text x="390" y="306" text-anchor="middle" font-size="11" fill="#5b6b7b">HallsAngle[1..6] = angle at each sector boundary (switch points: 30, 90, 150, 210, 270, 330)</text>
</svg>
