<svg xmlns="http://www.w3.org/2000/svg" width="720" height="340" viewBox="0 0 720 340" font-family="-apple-system,Segoe UI,Roboto,sans-serif" font-size="13">
  <rect x="0" y="0" width="720" height="340" fill="#ffffff"/>
  <text x="360" y="24" text-anchor="middle" font-size="15" font-weight="bold">1D error-map lookup and interpolation</text>

  <!-- position axis -->
  <line x1="60" y1="120" x2="660" y2="120" stroke="#5b6b7b" stroke-width="1.5"/>
  <text x="60" y="150" font-size="11">MapStartPos[1]</text>
  <line x1="80" y1="112" x2="80" y2="128" stroke="#5b6b7b"/>
  <line x1="200" y1="112" x2="200" y2="128" stroke="#5b6b7b"/>
  <line x1="320" y1="112" x2="320" y2="128" stroke="#5b6b7b"/>
  <line x1="440" y1="112" x2="440" y2="128" stroke="#5b6b7b"/>
  <line x1="560" y1="112" x2="560" y2="128" stroke="#5b6b7b"/>

  <text x="140" y="108" text-anchor="middle" font-size="11">&#8592; MapPosGap[1] &#8594;</text>

  <!-- grid point indices -->
  <text x="80"  y="168" text-anchor="middle" font-size="11">idx = MapStartIndex</text>
  <text x="200" y="168" text-anchor="middle" font-size="11">+1</text>
  <text x="320" y="168" text-anchor="middle" font-size="11">+2</text>
  <text x="440" y="168" text-anchor="middle" font-size="11">+3</text>
  <text x="560" y="185" text-anchor="middle" font-size="11">MapStartIndex</text>
  <text x="560" y="200" text-anchor="middle" font-size="11">+ MapLength[1] &#8722; 1</text>

  <!-- table values under grid (1-based) -->
  <text x="80"  y="220" text-anchor="middle" fill="#1565c0">e[1]</text>
  <text x="200" y="220" text-anchor="middle" fill="#1565c0">e[2]</text>
  <text x="320" y="220" text-anchor="middle" fill="#1565c0">e[3]</text>
  <text x="440" y="220" text-anchor="middle" fill="#1565c0">e[4]</text>
  <text x="560" y="240" text-anchor="middle" fill="#1565c0">e[L]</text>
  <text x="610" y="220" fill="#1565c0">= MapTable[ ]</text>

  <!-- current position marker -->
  <line x1="260" y1="60" x2="260" y2="128" stroke="#e0736b" stroke-width="1.5" stroke-dasharray="4 3"/>
  <text x="260" y="52" text-anchor="middle" fill="#e0736b">selected encoder position</text>

  <!-- interpolation bracket -->
  <line x1="200" y1="128" x2="320" y2="128" stroke="#e0736b" stroke-width="3"/>
  <text x="260" y="270" text-anchor="middle" fill="#e0736b">interpolate between e[2] and e[3]</text>

  <!-- formula -->
  <text x="60" y="305" font-size="12">idx_f = (selected encoder position &#8722; MapStartPos[1]) / MapPosGap[1]</text>
  <text x="60" y="325" font-size="12">correction = e[i] &#43; frac &#215; (e[i&#43;1] &#8722; e[i])   then added to Pos (ramped)</text>

  <!-- clamp arrows -->
  <text x="60" y="92" font-size="10" fill="#777">below range &#8594; e[1]</text>
  <text x="640" y="92" font-size="10" fill="#777" text-anchor="end">above range &#8594; e[L]</text>
</svg>
