<svg xmlns="http://www.w3.org/2000/svg" width="847" height="320" viewBox="-104 0 847 320" font-family="sans-serif" font-size="13">
  <defs>
    <marker id="arrow" markerWidth="9" markerHeight="9" refX="7" refY="3" orient="auto" markerUnits="strokeWidth">
      <path d="M0,0 L7,3 L0,6 Z" fill="#444"/>
    </marker>
  </defs>

  <!-- three model terms -->
  <rect x="20" y="20" width="200" height="40" rx="4" fill="#ffffff" stroke="#1f2933"/>
  <text x="120" y="44" text-anchor="middle">Resistive  R&#183;i  (RmFFWLevel)</text>

  <rect x="20" y="90" width="200" height="40" rx="4" fill="#ffffff" stroke="#1f2933"/>
  <text x="120" y="114" text-anchor="middle">Inductive  L&#183;di/dt  (LmFFWLevel)</text>

  <rect x="20" y="160" width="200" height="40" rx="4" fill="#ffffff" stroke="#1f2933"/>
  <text x="120" y="184" text-anchor="middle">Back-EMF  K&#183;&#969;  (BEMFFFWLevel)</text>

  <!-- sum node -> VqFFW -->
  <circle cx="320" cy="110" r="20" fill="#ffffff" stroke="#1f2933"/>
  <text x="320" y="115" text-anchor="middle">&#931;</text>
  <text x="320" y="160" text-anchor="middle">VqFFW</text>

  <line x1="220" y1="40" x2="302" y2="104" stroke="#444" marker-end="url(#arrow)"/>
  <line x1="220" y1="110" x2="298" y2="110" stroke="#444" marker-end="url(#arrow)"/>
  <line x1="220" y1="180" x2="302" y2="116" stroke="#444" marker-end="url(#arrow)"/>

  <!-- gate -->
  <rect x="400" y="90" width="120" height="40" rx="4" fill="#ffffff" stroke="#1f2933"/>
  <text x="460" y="114" text-anchor="middle">VoltageFFWOn</text>
  <line x1="340" y1="110" x2="398" y2="110" stroke="#444" marker-end="url(#arrow)"/>

  <!-- adder into Vq -->
  <circle cx="585" cy="110" r="18" fill="#ffffff" stroke="#1f2933"/>
  <text x="585" y="115" text-anchor="middle">+</text>
  <line x1="520" y1="110" x2="565" y2="110" stroke="#444" marker-end="url(#arrow)"/>

  <text x="585" y="60" text-anchor="middle">Vq (PI output)</text>
  <line x1="585" y1="68" x2="585" y2="90" stroke="#444" marker-end="url(#arrow)"/>

  <text x="585" y="160" text-anchor="middle">to vector limit</text>
  <line x1="585" y1="128" x2="585" y2="146" stroke="#444" marker-end="url(#arrow)"/>

  <text x="320" y="280" text-anchor="middle">VqFFW is added to Vq only when VoltageFFWOn = 1; the d axis uses the same path without the back-EMF term.</text>
</svg>
